<svg width="17" height="12" viewBox="0 0 17 12" fill="none" xmlns="http://www.w3.org/2000/svg">
<path fill-rule="evenodd" clip-rule="evenodd" d="M2.35868 2.4465C3.67118 1.18275 5.60393 0 8.21618 0C10.8284 0 12.7612 1.18275 14.0737 2.4465C14.9929 3.33927 15.754 4.38156 16.3244 5.529C16.4692 5.82825 16.4692 6.17175 16.3244 6.47025C15.7543 7.6179 14.9935 8.66045 14.0744 9.5535C12.7612 10.8173 10.8284 12 8.21618 12C5.60393 12 3.67118 10.8173 2.35868 9.5535C1.43945 8.66074 0.67839 7.61844 0.107934 6.471C0.0369002 6.32428 0 6.16339 0 6.00038C0 5.83737 0.0369002 5.67647 0.107934 5.52975C0.678091 4.3821 1.43964 3.33955 2.35868 2.4465ZM8.21618 8.25C8.81292 8.25 9.38522 8.01295 9.80717 7.59099C10.2291 7.16903 10.4662 6.59674 10.4662 6C10.4662 5.40326 10.2291 4.83097 9.80717 4.40901C9.38522 3.98705 8.81292 3.75 8.21618 3.75C7.61945 3.75 7.04715 3.98705 6.62519 4.40901C6.20324 4.83097 5.96618 5.40326 5.96618 6C5.96618 6.59674 6.20324 7.16903 6.62519 7.59099C7.04715 8.01295 7.61945 8.25 8.21618 8.25Z" fill="white"/>
</svg>
