<svg width="19" height="20" viewBox="0 0 19 20" fill="none" xmlns="http://www.w3.org/2000/svg">
<path d="M2.25 0C1.65326 0 1.08097 0.237053 0.65901 0.65901C0.237053 1.08097 0 1.65326 0 2.25V12.7455C0 13.3422 0.237053 13.9145 0.65901 14.3365C1.08097 14.7584 1.65326 14.9955 2.25 14.9955H6V16.5H3.741C3.54209 16.5 3.35132 16.579 3.21067 16.7197C3.07002 16.8603 2.991 17.0511 2.991 17.25C2.991 17.4489 3.07002 17.6397 3.21067 17.7803C3.35132 17.921 3.54209 18 3.741 18H8.9985V16.5H7.4985V14.9955H9L9.003 9.75C9.00297 9.30108 9.13722 8.86241 9.3885 8.49041C9.63977 8.1184 9.99659 7.83007 10.4131 7.66248C10.8295 7.4949 11.2866 7.45572 11.7255 7.54999C12.1644 7.64427 12.5651 7.86768 12.876 8.1915L17.898 13.4175C17.965 13.2055 17.999 12.982 18 12.747V2.25C18 1.65326 17.7629 1.08097 17.341 0.65901C16.919 0.237053 16.3467 0 15.75 0H2.25ZM11.7945 9.2295C11.6907 9.12185 11.5572 9.04767 11.411 9.01648C11.2647 8.98529 11.1125 8.99852 10.9739 9.05446C10.8352 9.11041 10.7164 9.20652 10.6328 9.33045C10.5492 9.45438 10.5045 9.60049 10.5045 9.75L10.4985 18.753C10.4984 18.9117 10.5488 19.0664 10.6422 19.1947C10.7356 19.323 10.8674 19.4184 11.0184 19.4671C11.1695 19.5158 11.3321 19.5153 11.4829 19.4657C11.6337 19.4161 11.7649 19.3199 11.8575 19.191L13.9125 16.329L17.5125 17.1675C17.67 17.204 17.8352 17.1887 17.9833 17.1237C18.1314 17.0587 18.2545 16.9476 18.3343 16.8069C18.4141 16.6662 18.4462 16.5035 18.426 16.343C18.4058 16.1826 18.3342 16.033 18.222 15.9165L11.7945 9.2295Z" fill="#80C4E1"/>
</svg>
