<svg width="37" height="37" viewBox="0 0 37 37" fill="none" xmlns="http://www.w3.org/2000/svg">
<path fill-rule="evenodd" clip-rule="evenodd" d="M0 18.3333C0 8.20833 8.20833 0 18.3333 0C28.4583 0 36.6667 8.20833 36.6667 18.3333C36.6667 28.4583 28.4583 36.6667 18.3333 36.6667C8.20833 36.6667 0 28.4583 0 18.3333ZM20 8.33333C20 7.89131 19.8244 7.46738 19.5118 7.15482C19.1993 6.84226 18.7754 6.66667 18.3333 6.66667C17.8913 6.66667 17.4674 6.84226 17.1548 7.15482C16.8423 7.46738 16.6667 7.89131 16.6667 8.33333V10C15.3406 10 14.0688 10.5268 13.1311 11.4645C12.1935 12.4021 11.6667 13.6739 11.6667 15C11.6667 16.3261 12.1935 17.5979 13.1311 18.5355C14.0688 19.4732 15.3406 20 16.6667 20H20C20.442 20 20.866 20.1756 21.1785 20.4882C21.4911 20.8007 21.6667 21.2246 21.6667 21.6667C21.6667 22.1087 21.4911 22.5326 21.1785 22.8452C20.866 23.1577 20.442 23.3333 20 23.3333H15C14.558 23.3333 14.1341 23.5089 13.8215 23.8215C13.5089 24.1341 13.3333 24.558 13.3333 25C13.3333 25.442 13.5089 25.866 13.8215 26.1785C14.1341 26.4911 14.558 26.6667 15 26.6667H16.6667V28.3333C16.6667 28.7754 16.8423 29.1993 17.1548 29.5118C17.4674 29.8244 17.8913 30 18.3333 30C18.7754 30 19.1993 29.8244 19.5118 29.5118C19.8244 29.1993 20 28.7754 20 28.3333V26.6667C20.6566 26.6667 21.3068 26.5373 21.9134 26.2861C22.52 26.0348 23.0712 25.6665 23.5355 25.2022C23.9998 24.7379 24.3681 24.1867 24.6194 23.5801C24.8707 22.9735 25 22.3233 25 21.6667C25 21.0101 24.8707 20.3599 24.6194 19.7533C24.3681 19.1466 23.9998 18.5954 23.5355 18.1311C23.0712 17.6668 22.52 17.2985 21.9134 17.0473C21.3068 16.796 20.6566 16.6667 20 16.6667H16.6667C16.2246 16.6667 15.8007 16.4911 15.4882 16.1785C15.1756 15.866 15 15.442 15 15C15 14.558 15.1756 14.1341 15.4882 13.8215C15.8007 13.5089 16.2246 13.3333 16.6667 13.3333H21.6667C22.1087 13.3333 22.5326 13.1577 22.8452 12.8452C23.1577 12.5326 23.3333 12.1087 23.3333 11.6667C23.3333 11.2246 23.1577 10.8007 22.8452 10.4882C22.5326 10.1756 22.1087 10 21.6667 10H20V8.33333Z" fill="#FED478"/>
</svg>
