<svg width="21" height="21" viewBox="0 0 21 21" fill="none" xmlns="http://www.w3.org/2000/svg">
<path d="M16.1993 6.00151C16.961 6.00107 17.6943 6.29036 18.2506 6.81071C18.8068 7.33106 19.1443 8.0435 19.1945 8.80351L19.2005 9.00031V9.90871C17.9345 8.86326 16.3243 8.32723 14.6842 8.40531C13.0442 8.48338 11.4922 9.16995 10.3312 10.3309C9.17017 11.4919 8.48361 13.044 8.40553 14.684C8.32746 16.324 8.86348 17.9343 9.90893 19.2003H9.00054C8.23887 19.2004 7.50568 18.9108 6.94968 18.3903C6.39368 17.8697 6.0565 17.1571 6.00653 16.3971L6.00053 16.2003V9.00031C6.00042 8.23865 6.29001 7.50546 6.81058 6.94946C7.33115 6.39346 8.04371 6.05628 8.80373 6.00631L8.99933 6.00151H16.1993ZM12.7949 2.03431L12.8525 2.22391L13.5425 4.80031H8.40054C7.48228 4.80026 6.59872 5.1511 5.93062 5.78105C5.26253 6.411 4.86041 7.27244 4.80653 8.18911L4.80053 8.40031V14.8179C4.18746 14.8049 3.59309 14.6044 3.09747 14.2433C2.60185 13.8822 2.22879 13.3779 2.02853 12.7983L1.96613 12.5943L0.102534 5.64031C-0.094893 4.90466 -0.00510843 4.12146 0.353676 3.44958C0.712459 2.7777 1.31338 2.26744 2.03453 2.02231L2.22413 1.96591L9.17814 0.102312C9.88119 -0.0861537 10.6288 -0.012588 11.2816 0.309301C11.9344 0.631191 12.448 1.17945 12.7265 1.85191L12.7949 2.03431ZM20.4005 15.0015C20.4005 15.7106 20.2609 16.4128 19.9895 17.068C19.7181 17.7232 19.3203 18.3185 18.8189 18.8199C18.3175 19.3213 17.7222 19.7191 17.067 19.9905C16.4119 20.2618 15.7097 20.4015 15.0005 20.4015C14.2914 20.4015 13.5892 20.2618 12.934 19.9905C12.2789 19.7191 11.6836 19.3213 11.1822 18.8199C10.6807 18.3185 10.283 17.7232 10.0116 17.068C9.74021 16.4128 9.60053 15.7106 9.60053 15.0015C9.60053 13.5693 10.1695 12.1958 11.1822 11.1831C12.1949 10.1704 13.5684 9.60151 15.0005 9.60151C16.4327 9.60151 17.8062 10.1704 18.8189 11.1831C19.8316 12.1958 20.4005 13.5693 20.4005 15.0015ZM15.6005 12.6015C15.6005 12.4424 15.5373 12.2898 15.4248 12.1772C15.3123 12.0647 15.1597 12.0015 15.0005 12.0015C14.8414 12.0015 14.6888 12.0647 14.5763 12.1772C14.4637 12.2898 14.4005 12.4424 14.4005 12.6015V14.4015H12.6005C12.4414 14.4015 12.2888 14.4647 12.1763 14.5772C12.0637 14.6898 12.0005 14.8424 12.0005 15.0015C12.0005 15.1606 12.0637 15.3133 12.1763 15.4258C12.2888 15.5383 12.4414 15.6015 12.6005 15.6015H14.4005V17.4015C14.4005 17.5606 14.4637 17.7133 14.5763 17.8258C14.6888 17.9383 14.8414 18.0015 15.0005 18.0015C15.1597 18.0015 15.3123 17.9383 15.4248 17.8258C15.5373 17.7133 15.6005 17.5606 15.6005 17.4015V15.6015H17.4005C17.5597 15.6015 17.7123 15.5383 17.8248 15.4258C17.9373 15.3133 18.0005 15.1606 18.0005 15.0015C18.0005 14.8424 17.9373 14.6898 17.8248 14.5772C17.7123 14.4647 17.5597 14.4015 17.4005 14.4015H15.6005V12.6015Z" fill="#80C4E1"/>
</svg>
