<svg width="20" height="20" viewBox="0 0 20 20" fill="none" xmlns="http://www.w3.org/2000/svg">
<path d="M13.257 0H6.753C4.96349 0.00316992 3.24813 0.715251 1.98247 1.98035C0.716808 3.24545 0.00396508 4.96049 0 6.75V13.25C0.00019022 14.383 0.286432 15.4977 0.83219 16.4906C1.37795 17.4835 2.16556 18.3226 3.122 18.93C3.45575 19.1516 3.81086 19.3392 4.182 19.49C4.99396 19.8263 5.86415 19.9996 6.743 20H13.247C14.147 20 15.038 19.82 15.867 19.47C16.2636 19.3013 16.6425 19.0937 16.998 18.85C17.9207 18.2382 18.6777 17.4076 19.2015 16.4323C19.7253 15.4569 19.9996 14.3671 20 13.26V6.76C20 4.97008 19.2901 3.25322 18.0261 1.98596C16.762 0.7187 15.0469 0.00450128 13.257 0ZM10.005 4.58C10.4693 4.58033 10.9277 4.68351 11.3474 4.88213C11.767 5.08075 12.1374 5.36987 12.432 5.72872C12.7266 6.08756 12.938 6.50721 13.0511 6.95751C13.1642 7.4078 13.1761 7.87755 13.086 8.333C12.9954 8.78855 12.8049 9.21834 12.5282 9.59138C12.2515 9.96443 11.8955 10.2714 11.4858 10.4903C11.0761 10.7091 10.623 10.8344 10.1591 10.857C9.69517 10.8796 9.23201 10.799 8.803 10.621C8.22893 10.3836 7.73819 9.98123 7.39286 9.46484C7.04753 8.94845 6.86313 8.34122 6.863 7.72C6.86564 6.88769 7.19758 6.09024 7.78631 5.50189C8.37503 4.91354 9.17268 4.58211 10.005 4.58ZM15.007 18.21C14.4614 18.4044 13.8862 18.5025 13.307 18.5H6.803C5.56051 18.4969 4.35922 18.0541 3.412 17.25C3.88043 16.2304 4.60368 15.3487 5.512 14.69C6.79383 13.6419 8.39869 13.0692 10.0545 13.0692C11.7103 13.0692 13.3152 13.6419 14.597 14.69C15.508 15.3428 16.2463 16.2078 16.748 17.21C16.225 17.66 15.92 17.908 15.262 18.117L15.007 18.21Z" fill="#80C4E1"/>
</svg>
