<svg width="26" height="36" viewBox="0 0 26 36" fill="none" xmlns="http://www.w3.org/2000/svg">
<path d="M9.1702 25.1527L9.1676 25.145L8.6736 24.9856C6.32413 24.1642 4.26284 22.6922 2.7352 20.7449C1.4999 19.1715 0.651102 17.3357 0.255755 15.3824C-0.139591 13.429 -0.0706716 11.4115 0.457078 9.48902C0.984827 7.56652 1.95697 5.7916 3.29683 4.30427C4.63668 2.81693 6.30761 1.65786 8.17779 0.918474C10.048 0.17909 12.0663 -0.120381 14.0735 0.0436839C16.0807 0.207749 18.0219 0.830861 19.744 1.86387C21.4661 2.89688 22.922 4.31153 23.9969 5.99624C25.0717 7.68095 25.7361 9.58963 25.9376 11.5717C26.0078 12.2789 25.4176 12.855 24.7 12.855C23.9824 12.855 23.4078 12.2764 23.322 11.5717C23.09 9.75314 22.3708 8.0289 21.239 6.57743C20.1072 5.12596 18.6038 3.99999 16.8845 3.31602C15.1651 2.63205 13.2922 2.41493 11.4595 2.68713C9.6268 2.95933 7.90095 3.71096 6.46049 4.86425C5.02004 6.01753 3.91732 7.53057 3.26642 9.24682C2.61552 10.9631 2.4401 12.8202 2.7583 14.626C3.0765 16.4318 3.87676 18.1207 5.07629 19.5179C6.27581 20.9152 7.83102 21.97 9.581 22.5733C10.0224 21.777 10.7337 21.1602 11.5897 20.8317C12.4457 20.5031 13.3914 20.4838 14.2604 20.7771C15.1293 21.0704 15.8658 21.6576 16.3401 22.4352C16.8144 23.2128 16.9961 24.131 16.8532 25.0281C16.7103 25.9252 16.252 26.7437 15.559 27.3394C14.866 27.9352 13.9827 28.2699 13.0647 28.2848C12.1466 28.2997 11.2527 27.9938 10.5403 27.4208C9.82791 26.8479 9.34273 26.0447 9.1702 25.1527ZM7.1084 27.1458C4.56198 26.1175 2.33568 24.4415 0.6552 22.2879C0.22806 22.9215 8.39016e-05 23.666 0 24.4275V25.7133C0 30.7821 4.836 36 13 36C21.164 36 26 30.7821 26 25.7133V24.4275C26 23.4044 25.5891 22.4233 24.8577 21.6998C24.1263 20.9764 23.1343 20.57 22.1 20.57H18.2C18.7453 21.2903 19.1317 22.1159 19.3341 22.9933C19.5365 23.8706 19.5504 24.7802 19.3749 25.6633C19.1995 26.5463 18.8386 27.383 18.3156 28.1194C17.7925 28.8557 17.119 29.4753 16.3387 29.9379C15.5583 30.4006 14.6884 30.696 13.7853 30.8052C12.8822 30.9143 11.966 30.8347 11.0959 30.5715C10.2259 30.3083 9.42141 29.8674 8.73452 29.2773C8.04763 28.6872 7.49364 27.961 7.1084 27.1458ZM20.8 12.855C20.8 10.5045 19.7366 8.3983 18.0596 6.98388C17.2408 6.29789 16.2877 5.78637 15.2599 5.48134C14.2321 5.1763 13.1518 5.08431 12.0864 5.2111C11.021 5.3379 9.99353 5.68076 9.06824 6.21824C8.14294 6.75572 7.33972 7.47626 6.70881 8.33479C6.0779 9.19333 5.63288 10.1714 5.40157 11.2078C5.17026 12.2442 5.15764 13.3167 5.36451 14.3581C5.57137 15.3996 5.99327 16.3876 6.60381 17.2605C7.21435 18.1333 8.0004 18.8721 8.9128 19.4308C10.0689 18.5037 11.5117 17.9972 13 17.9958C14.4877 17.9957 15.9304 18.5004 17.0872 19.4256C18.2218 18.7352 19.1588 17.7688 19.8087 16.6186C20.4587 15.4684 20.7999 14.1727 20.8 12.855Z" fill="#FED478"/>
</svg>
