<svg width="34" height="27" viewBox="0 0 34 27" fill="none" xmlns="http://www.w3.org/2000/svg">
<path fill-rule="evenodd" clip-rule="evenodd" d="M10 0.000836701C8.23189 0.000836701 6.5362 0.703215 5.28595 1.95346C4.03571 3.2037 3.33333 4.89939 3.33333 6.6675C3.33333 8.43561 4.03571 10.1313 5.28595 11.3815C6.5362 12.6318 8.23189 13.3342 10 13.3342C11.7681 13.3342 13.4638 12.6318 14.714 11.3815C15.9643 10.1313 16.6667 8.43561 16.6667 6.6675C16.6667 4.89939 15.9643 3.2037 14.714 1.95346C13.4638 0.703215 11.7681 0.000836701 10 0.000836701ZM6.66667 15.0008C4.89856 15.0008 3.20286 15.7032 1.95262 16.9535C0.702379 18.2037 0 19.8994 0 21.6675V23.3342C0 24.2182 0.351189 25.0661 0.976311 25.6912C1.60143 26.3163 2.44928 26.6675 3.33333 26.6675H16.6667C17.5507 26.6675 18.3986 26.3163 19.0237 25.6912C19.6488 25.0661 20 24.2182 20 23.3342V21.6675C20 19.8994 19.2976 18.2037 18.0474 16.9535C16.7971 15.7032 15.1014 15.0008 13.3333 15.0008H6.66667ZM18.75 11.5092C19.5467 10.0758 20 8.42584 20 6.6675C20.0004 4.97324 19.5702 3.30665 18.75 1.82417C19.6964 0.928719 20.8844 0.330189 22.1672 0.102552C23.45 -0.125086 24.7714 0.0281464 25.9681 0.543311C27.1647 1.05848 28.1843 1.91299 28.9006 3.00125C29.6169 4.08951 29.9987 5.36381 29.9987 6.66667C29.9987 7.96953 29.6169 9.24383 28.9006 10.3321C28.1843 11.4203 27.1647 12.2749 25.9681 12.79C24.7714 13.3052 23.45 13.4584 22.1672 13.2308C20.8844 13.0032 19.6964 12.4046 18.75 11.5092ZM22.4433 26.6675C23.01 25.6875 23.335 24.5492 23.335 23.3342V21.6675C23.3381 19.2071 22.431 16.8325 20.7883 15.0008H26.6667C28.4348 15.0008 30.1305 15.7032 31.3807 16.9535C32.631 18.2037 33.3333 19.8994 33.3333 21.6675V23.3342C33.3333 24.2182 32.9821 25.0661 32.357 25.6912C31.7319 26.3163 30.8841 26.6675 30 26.6675H22.4433Z" fill="#FED478"/>
</svg>
