<svg width="31" height="33" viewBox="0 0 31 33" fill="none" xmlns="http://www.w3.org/2000/svg">
<path d="M3.75 0C2.75544 0 1.80161 0.395088 1.09835 1.09835C0.395088 1.80161 0 2.75544 0 3.75V21.2425C0 22.2371 0.395088 23.1909 1.09835 23.8941C1.80161 24.5974 2.75544 24.9925 3.75 24.9925H10V27.5H6.235C5.90348 27.5 5.58554 27.6317 5.35112 27.8661C5.1167 28.1005 4.985 28.4185 4.985 28.75C4.985 29.0815 5.1167 29.3995 5.35112 29.6339C5.58554 29.8683 5.90348 30 6.235 30H14.9975V27.5H12.4975V24.9925H15L15.005 16.25C15.0049 15.5018 15.2287 14.7707 15.6475 14.1507C16.0663 13.5307 16.661 13.0501 17.3551 12.7708C18.0492 12.4915 18.811 12.4262 19.5425 12.5833C20.274 12.7404 20.9418 13.1128 21.46 13.6525L29.83 22.3625C29.9417 22.0092 29.9983 21.6367 30 21.245V3.75C30 2.75544 29.6049 1.80161 28.9016 1.09835C28.1984 0.395088 27.2446 0 26.25 0H3.75ZM19.6575 15.3825C19.4846 15.2031 19.262 15.0794 19.0183 15.0275C18.7745 14.9755 18.5209 14.9975 18.2898 15.0908C18.0587 15.184 17.8607 15.3442 17.7214 15.5507C17.582 15.7573 17.5075 16.0008 17.5075 16.25L17.4975 31.255C17.4974 31.5196 17.5813 31.7773 17.737 31.9912C17.8927 32.2051 18.1123 32.364 18.3641 32.4452C18.6159 32.5263 18.8869 32.5255 19.1382 32.4428C19.3895 32.3601 19.6081 32.1998 19.7625 31.985L23.1875 27.215L29.1875 28.6125C29.4501 28.6734 29.7253 28.6478 29.9721 28.5394C30.219 28.4311 30.4242 28.2459 30.5571 28.0115C30.6901 27.777 30.7437 27.5058 30.71 27.2384C30.6763 26.971 30.557 26.7216 30.37 26.5275L19.6575 15.3825Z" fill="#FED478"/>
</svg>
