<svg width="34" height="34" viewBox="0 0 34 34" fill="none" xmlns="http://www.w3.org/2000/svg">
<path d="M22.095 0H11.255C8.27248 0.00528319 5.41355 1.19209 3.30411 3.30058C1.19468 5.40908 0.00660846 8.26748 0 11.25V22.0833C0.000317033 23.9717 0.477387 25.8294 1.38698 27.4843C2.29658 29.1392 3.60926 30.5376 5.20333 31.55C5.75959 31.9193 6.35143 32.232 6.97 32.4833C8.32326 33.0439 9.77358 33.3327 11.2383 33.3333H22.0783C23.5783 33.3333 25.0633 33.0333 26.445 32.45C27.106 32.1689 27.7375 31.8228 28.33 31.4167C29.8678 30.397 31.1295 29.0127 32.0025 27.3871C32.8755 25.7615 33.3327 23.9452 33.3333 22.1V11.2667C33.3333 8.28346 32.1502 5.42203 30.0434 3.30993C27.9366 1.19783 25.0782 0.00750214 22.095 0ZM16.675 7.63333C17.4488 7.63388 18.2129 7.80586 18.9123 8.13689C19.6117 8.46792 20.229 8.94979 20.72 9.54786C21.211 10.1459 21.5634 10.8454 21.7519 11.5958C21.9403 12.3463 21.9602 13.1293 21.81 13.8883C21.659 14.6476 21.3415 15.3639 20.8804 15.9856C20.4192 16.6074 19.8258 17.1191 19.143 17.4838C18.4602 17.8486 17.705 18.0573 16.9318 18.095C16.1586 18.1326 15.3867 17.9983 14.6717 17.7017C13.7149 17.306 12.897 16.6354 12.3214 15.7747C11.7459 14.9141 11.4385 13.902 11.4383 12.8667C11.4427 11.4795 11.996 10.1504 12.9772 9.16982C13.9584 8.18924 15.2878 7.63685 16.675 7.63333ZM25.0117 30.35C24.1023 30.674 23.1436 30.8375 22.1783 30.8333H11.3383C9.26752 30.8282 7.26537 30.0902 5.68667 28.75C6.46739 27.0507 7.67281 25.5812 9.18667 24.4833C11.323 22.7364 13.9978 21.7821 16.7575 21.7821C19.5172 21.7821 22.1919 22.7364 24.3283 24.4833C25.8467 25.5714 27.0772 27.0129 27.9133 28.6833C27.0417 29.4333 26.5333 29.8467 25.4367 30.195L25.0117 30.35Z" fill="#FED478"/>
</svg>
