<svg width="34" height="34" viewBox="0 0 34 34" fill="none" xmlns="http://www.w3.org/2000/svg">
<path d="M26.9989 10.0025C28.2683 10.0018 29.4906 10.4839 30.4176 11.3512C31.3446 12.2184 31.9071 13.4058 31.9909 14.6725L32.0009 15.0005V16.5145C29.8908 14.7721 27.2071 13.8787 24.4737 14.0088C21.7403 14.139 19.1536 15.2832 17.2186 17.2182C15.2836 19.1532 14.1393 21.74 14.0092 24.4733C13.8791 27.2067 14.7725 29.8905 16.5149 32.0005H15.0009C13.7315 32.0007 12.5095 31.5181 11.5828 30.6504C10.6561 29.7828 10.0942 28.5952 10.0109 27.3285L10.0009 27.0005V15.0005C10.0007 13.7311 10.4834 12.5091 11.351 11.5824C12.2186 10.6558 13.4062 10.0938 14.6729 10.0105L14.9989 10.0025H26.9989ZM21.3249 3.39052L21.4209 3.70652L22.5709 8.00052H14.0009C12.4705 8.00043 10.9979 8.58517 9.88437 9.63509C8.77088 10.685 8.10068 12.1207 8.01089 13.6485L8.00089 14.0005V24.6965C6.9791 24.6749 5.98849 24.3406 5.16246 23.7388C4.33642 23.137 3.71466 22.2965 3.38089 21.3305L3.27689 20.9905L0.170891 9.40052C-0.158155 8.17444 -0.00851405 6.86911 0.589459 5.7493C1.18743 4.62949 2.18896 3.77906 3.39089 3.37052L3.70689 3.27652L15.2969 0.17052C16.4686 -0.14359 17.7146 -0.0209801 18.8027 0.515503C19.8907 1.05199 20.7466 1.96575 21.2109 3.08652L21.3249 3.39052ZM34.0009 25.0025C34.0009 26.1844 33.7681 27.3547 33.3158 28.4467C32.8635 29.5386 32.2006 30.5308 31.3649 31.3665C30.5291 32.2022 29.537 32.8651 28.445 33.3174C27.3531 33.7697 26.1828 34.0025 25.0009 34.0025C23.819 34.0025 22.6487 33.7697 21.5567 33.3174C20.4648 32.8651 19.4727 32.2022 18.6369 31.3665C17.8012 30.5308 17.1383 29.5386 16.686 28.4467C16.2337 27.3547 16.0009 26.1844 16.0009 25.0025C16.0009 22.6156 16.9491 20.3264 18.6369 18.6386C20.3248 16.9507 22.6139 16.0025 25.0009 16.0025C27.3878 16.0025 29.677 16.9507 31.3648 18.6386C33.0527 20.3264 34.0009 22.6156 34.0009 25.0025ZM26.0009 21.0025C26.0009 20.7373 25.8955 20.4829 25.708 20.2954C25.5205 20.1079 25.2661 20.0025 25.0009 20.0025C24.7357 20.0025 24.4813 20.1079 24.2938 20.2954C24.1062 20.4829 24.0009 20.7373 24.0009 21.0025V24.0025H21.0009C20.7357 24.0025 20.4813 24.1079 20.2938 24.2954C20.1062 24.4829 20.0009 24.7373 20.0009 25.0025C20.0009 25.2677 20.1062 25.5221 20.2938 25.7096C20.4813 25.8972 20.7357 26.0025 21.0009 26.0025H24.0009V29.0025C24.0009 29.2677 24.1062 29.5221 24.2938 29.7096C24.4813 29.8972 24.7357 30.0025 25.0009 30.0025C25.2661 30.0025 25.5205 29.8972 25.708 29.7096C25.8955 29.5221 26.0009 29.2677 26.0009 29.0025V26.0025H29.0009C29.2661 26.0025 29.5205 25.8972 29.708 25.7096C29.8955 25.5221 30.0009 25.2677 30.0009 25.0025C30.0009 24.7373 29.8955 24.4829 29.708 24.2954C29.5205 24.1079 29.2661 24.0025 29.0009 24.0025H26.0009V21.0025Z" fill="#FED478"/>
</svg>
